<?xml version="1.0" encoding="UTF-8" standalone="no"?>
<!DOCTYPE svg PUBLIC "-//W3C//DTD SVG 1.0//EN"
 "http://www.w3.org/TR/2001/REC-SVG-20010904/DTD/svg10.dtd" [
 <!ATTLIST svg xmlns:xlink CDATA #FIXED "http://www.w3.org/1999/xlink">
]>
<!-- Generated by Graphviz version 2.20.3 (Wed Dec 17 01:23:50 UTC 2008)
 -->
<!-- Title: controllers_diagram Pages: 1 -->
<svg width="488pt" height="390pt"
 viewBox="0.00 0.00 488.00 390.00" xmlns="http://www.w3.org/2000/svg" xmlns:xlink="http://www.w3.org/1999/xlink">
<g id="graph0" class="graph" transform="scale(1 1) rotate(0) translate(4 386)">
<title>controllers_diagram</title>
<polygon style="fill:white;stroke:white;" points="-4,4 -4,-386 484,-386 484,4 -4,4"/>
<!-- _diagram_info -->
<g id="node1" class="node"><title>_diagram_info</title>
<text text-anchor="start" x="316.5" y="-96.4" style="font-family:Times New Roman;font-size:11.00;">Controllers diagram</text>
<text text-anchor="start" x="316.5" y="-84.4" style="font-family:Times New Roman;font-size:11.00;">Date: Jan 21 2009 &#45; 12:34</text>
<text text-anchor="start" x="316.5" y="-72.4" style="font-family:Times New Roman;font-size:11.00;">Migration version: 20081109104328</text>
<text text-anchor="start" x="316.5" y="-60.4" style="font-family:Times New Roman;font-size:11.00;">Generated by RailRoad 0.5.0</text>
</g>
<!-- AnswersController -->
<g id="node2" class="node"><title>AnswersController</title>
<polyline style="fill:none;stroke:black;" points="13,-197 85,-197 "/>
<path style="fill:none;stroke:black;" d="M85,-197C91,-197 97,-203 97,-209"/>
<polyline style="fill:none;stroke:black;" points="97,-209 97,-305 "/>
<path style="fill:none;stroke:black;" d="M97,-305C97,-311 91,-317 85,-317"/>
<polyline style="fill:none;stroke:black;" points="85,-317 13,-317 "/>
<path style="fill:none;stroke:black;" d="M13,-317C7,-317 1,-311 1,-305"/>
<polyline style="fill:none;stroke:black;" points="1,-305 1,-209 "/>
<path style="fill:none;stroke:black;" d="M1,-209C1,-203 7,-197 13,-197"/>
<text text-anchor="middle" x="49" y="-300.4" style="font-family:Times New Roman;font-size:11.00;">AnswersController</text>
<polyline style="fill:none;stroke:black;" points="1,-297 97,-297 "/>
<text text-anchor="start" x="9" y="-280.4" style="font-family:Times New Roman;font-size:11.00;">create</text>
<text text-anchor="start" x="9" y="-268.4" style="font-family:Times New Roman;font-size:11.00;">index</text>
<text text-anchor="start" x="9" y="-256.4" style="font-family:Times New Roman;font-size:11.00;">new</text>
<text text-anchor="start" x="9" y="-244.4" style="font-family:Times New Roman;font-size:11.00;">show</text>
<polyline style="fill:none;stroke:black;" points="1,-241 97,-241 "/>
<polyline style="fill:none;stroke:black;" points="1,-217 97,-217 "/>
<text text-anchor="start" x="9" y="-200.4" style="font-family:Times New Roman;font-size:11.00;">find_question</text>
</g>
<!-- QuestionsController -->
<g id="node3" class="node"><title>QuestionsController</title>
<polyline style="fill:none;stroke:black;" points="190,-221 267,-221 "/>
<path style="fill:none;stroke:black;" d="M267,-221C273,-221 279,-227 279,-233"/>
<polyline style="fill:none;stroke:black;" points="279,-233 279,-369 "/>
<path style="fill:none;stroke:black;" d="M279,-369C279,-375 273,-381 267,-381"/>
<polyline style="fill:none;stroke:black;" points="267,-381 190,-381 "/>
<path style="fill:none;stroke:black;" d="M190,-381C184,-381 178,-375 178,-369"/>
<polyline style="fill:none;stroke:black;" points="178,-369 178,-233 "/>
<path style="fill:none;stroke:black;" d="M178,-233C178,-227 184,-221 190,-221"/>
<text text-anchor="middle" x="228" y="-364.4" style="font-family:Times New Roman;font-size:11.00;">QuestionsController</text>
<polyline style="fill:none;stroke:black;" points="178,-361 279,-361 "/>
<text text-anchor="start" x="185.5" y="-344.4" style="font-family:Times New Roman;font-size:11.00;">create</text>
<text text-anchor="start" x="185.5" y="-332.4" style="font-family:Times New Roman;font-size:11.00;">destroy</text>
<text text-anchor="start" x="185.5" y="-320.4" style="font-family:Times New Roman;font-size:11.00;">edit</text>
<text text-anchor="start" x="185.5" y="-308.4" style="font-family:Times New Roman;font-size:11.00;">index</text>
<text text-anchor="start" x="185.5" y="-296.4" style="font-family:Times New Roman;font-size:11.00;">new</text>
<text text-anchor="start" x="185.5" y="-284.4" style="font-family:Times New Roman;font-size:11.00;">show</text>
<text text-anchor="start" x="185.5" y="-272.4" style="font-family:Times New Roman;font-size:11.00;">update</text>
<polyline style="fill:none;stroke:black;" points="178,-269 279,-269 "/>
<polyline style="fill:none;stroke:black;" points="178,-245 279,-245 "/>
</g>
<!-- SessionsController -->
<g id="node4" class="node"><title>SessionsController</title>
<polyline style="fill:none;stroke:black;" points="58,-1 149,-1 "/>
<path style="fill:none;stroke:black;" d="M149,-1C155,-1 161,-7 161,-13"/>
<polyline style="fill:none;stroke:black;" points="161,-13 161,-97 "/>
<path style="fill:none;stroke:black;" d="M161,-97C161,-103 155,-109 149,-109"/>
<polyline style="fill:none;stroke:black;" points="149,-109 58,-109 "/>
<path style="fill:none;stroke:black;" d="M58,-109C52,-109 46,-103 46,-97"/>
<polyline style="fill:none;stroke:black;" points="46,-97 46,-13 "/>
<path style="fill:none;stroke:black;" d="M46,-13C46,-7 52,-1 58,-1"/>
<text text-anchor="middle" x="103" y="-92.4" style="font-family:Times New Roman;font-size:11.00;">SessionsController</text>
<polyline style="fill:none;stroke:black;" points="46,-89 161,-89 "/>
<text text-anchor="start" x="53.5" y="-72.4" style="font-family:Times New Roman;font-size:11.00;">create</text>
<text text-anchor="start" x="53.5" y="-60.4" style="font-family:Times New Roman;font-size:11.00;">destroy</text>
<text text-anchor="start" x="53.5" y="-48.4" style="font-family:Times New Roman;font-size:11.00;">new</text>
<polyline style="fill:none;stroke:black;" points="46,-45 161,-45 "/>
<text text-anchor="start" x="53.5" y="-28.4" style="font-family:Times New Roman;font-size:11.00;">open_id_authentication</text>
<polyline style="fill:none;stroke:black;" points="46,-25 161,-25 "/>
</g>
<!-- ApplicationController -->
<g id="node5" class="node"><title>ApplicationController</title>
<polyline style="fill:none;stroke:black;" points="199,-65 284,-65 "/>
<path style="fill:none;stroke:black;" d="M284,-65C290,-65 296,-71 296,-77"/>
<polyline style="fill:none;stroke:black;" points="296,-77 296,-185 "/>
<path style="fill:none;stroke:black;" d="M296,-185C296,-191 290,-197 284,-197"/>
<polyline style="fill:none;stroke:black;" points="284,-197 199,-197 "/>
<path style="fill:none;stroke:black;" d="M199,-197C193,-197 187,-191 187,-185"/>
<polyline style="fill:none;stroke:black;" points="187,-185 187,-77 "/>
<path style="fill:none;stroke:black;" d="M187,-77C187,-71 193,-65 199,-65"/>
<text text-anchor="middle" x="241" y="-180.4" style="font-family:Times New Roman;font-size:11.00;">ApplicationController</text>
<polyline style="fill:none;stroke:black;" points="187,-177 296,-177 "/>
<text text-anchor="start" x="194.5" y="-160.4" style="font-family:Times New Roman;font-size:11.00;">authorized?</text>
<text text-anchor="start" x="194.5" y="-148.4" style="font-family:Times New Roman;font-size:11.00;">current_user</text>
<text text-anchor="start" x="194.5" y="-136.4" style="font-family:Times New Roman;font-size:11.00;">logged_in?</text>
<text text-anchor="start" x="194.5" y="-124.4" style="font-family:Times New Roman;font-size:11.00;">login_required</text>
<text text-anchor="start" x="194.5" y="-112.4" style="font-family:Times New Roman;font-size:11.00;">render_404</text>
<polyline style="fill:none;stroke:black;" points="187,-109 296,-109 "/>
<text text-anchor="start" x="194.5" y="-92.4" style="font-family:Times New Roman;font-size:11.00;">filter_parameters</text>
<polyline style="fill:none;stroke:black;" points="187,-89 296,-89 "/>
</g>
<!-- ApplicationController&#45;&gt;AnswersController -->
<g id="edge2" class="edge"><title>ApplicationController&#45;&gt;AnswersController</title>
<path style="fill:none;stroke:black;" d="M178,-173C152,-190 122,-210 97,-225"/>
<polygon style="fill:none;stroke:black;" points="180.621,-175.459 187,-167 176.738,-169.635 180.621,-175.459"/>
</g>
<!-- ApplicationController&#45;&gt;QuestionsController -->
<g id="edge4" class="edge"><title>ApplicationController&#45;&gt;QuestionsController</title>
<path style="fill:none;stroke:black;" d="M235,-207C235,-212 235,-216 234,-221"/>
<polygon style="fill:none;stroke:black;" points="238.488,-207.299 236,-197 231.522,-206.602 238.488,-207.299"/>
</g>
<!-- ApplicationController&#45;&gt;SessionsController -->
<g id="edge6" class="edge"><title>ApplicationController&#45;&gt;SessionsController</title>
<path style="fill:none;stroke:black;" d="M178,-96C172,-93 167,-90 161,-87"/>
<polygon style="fill:none;stroke:black;" points="176.559,-99.2031 187,-101 179.958,-93.084 176.559,-99.2031"/>
</g>
</g>
</svg>
