<?xml version="1.0" encoding="UTF-8" standalone="no"?>
<!DOCTYPE svg PUBLIC "-//W3C//DTD SVG 1.0//EN"
 "http://www.w3.org/TR/2001/REC-SVG-20010904/DTD/svg10.dtd" [
 <!ATTLIST svg xmlns:xlink CDATA #FIXED "http://www.w3.org/1999/xlink">
]>
<!-- Generated by Graphviz version 2.20.3 (Wed Dec 17 01:23:50 UTC 2008)
 -->
<!-- Title: models_diagram Pages: 1 -->
<svg width="496pt" height="220pt"
 viewBox="0.00 0.00 496.00 220.00" xmlns="http://www.w3.org/2000/svg" xmlns:xlink="http://www.w3.org/1999/xlink">
<g id="graph0" class="graph" transform="scale(1 1) rotate(0) translate(4 216)">
<title>models_diagram</title>
<polygon style="fill:white;stroke:white;" points="-4,4 -4,-216 492,-216 492,4 -4,4"/>
<!-- _diagram_info -->
<g id="node1" class="node"><title>_diagram_info</title>
<text text-anchor="start" x="7.5" y="-179.4" style="font-family:Times New Roman;font-size:11.00;">Models diagram</text>
<text text-anchor="start" x="7.5" y="-167.4" style="font-family:Times New Roman;font-size:11.00;">Date: Jan 21 2009 &#45; 12:34</text>
<text text-anchor="start" x="7.5" y="-155.4" style="font-family:Times New Roman;font-size:11.00;">Migration version: 20081109104328</text>
<text text-anchor="start" x="7.5" y="-143.4" style="font-family:Times New Roman;font-size:11.00;">Generated by RailRoad 0.5.0</text>
</g>
<!-- Answer -->
<g id="node2" class="node"><title>Answer</title>
<polyline style="fill:none;stroke:black;" points="30,-0 110,-0 "/>
<path style="fill:none;stroke:black;" d="M110,-0C116,-0 122,-6 122,-12"/>
<polyline style="fill:none;stroke:black;" points="122,-12 122,-64 "/>
<path style="fill:none;stroke:black;" d="M122,-64C122,-70 116,-76 110,-76"/>
<polyline style="fill:none;stroke:black;" points="110,-76 30,-76 "/>
<path style="fill:none;stroke:black;" d="M30,-76C24,-76 18,-70 18,-64"/>
<polyline style="fill:none;stroke:black;" points="18,-64 18,-12 "/>
<path style="fill:none;stroke:black;" d="M18,-12C18,-6 24,-0 30,-0"/>
<text text-anchor="middle" x="70" y="-59.4" style="font-family:Times New Roman;font-size:11.00;">Answer</text>
<polyline style="fill:none;stroke:black;" points="18,-56 122,-56 "/>
<text text-anchor="start" x="26" y="-39.4" style="font-family:Times New Roman;font-size:11.00;">content :text</text>
<text text-anchor="start" x="26" y="-27.4" style="font-family:Times New Roman;font-size:11.00;">created_at :datetime</text>
<text text-anchor="start" x="26" y="-15.4" style="font-family:Times New Roman;font-size:11.00;">updated_at :datetime</text>
<text text-anchor="start" x="26" y="-3.4" style="font-family:Times New Roman;font-size:11.00;">identity_url :string</text>
</g>
<!-- OpenidRegex -->
<g id="node3" class="node"><title>OpenidRegex</title>
<polyline style="fill:none;stroke:black;" points="152,-6 232,-6 "/>
<path style="fill:none;stroke:black;" d="M232,-6C238,-6 244,-12 244,-18"/>
<polyline style="fill:none;stroke:black;" points="244,-18 244,-58 "/>
<path style="fill:none;stroke:black;" d="M244,-58C244,-64 238,-70 232,-70"/>
<polyline style="fill:none;stroke:black;" points="232,-70 152,-70 "/>
<path style="fill:none;stroke:black;" d="M152,-70C146,-70 140,-64 140,-58"/>
<polyline style="fill:none;stroke:black;" points="140,-58 140,-18 "/>
<path style="fill:none;stroke:black;" d="M140,-18C140,-12 146,-6 152,-6"/>
<text text-anchor="middle" x="192" y="-53.4" style="font-family:Times New Roman;font-size:11.00;">OpenidRegex</text>
<polyline style="fill:none;stroke:black;" points="140,-50 244,-50 "/>
<text text-anchor="start" x="148" y="-33.4" style="font-family:Times New Roman;font-size:11.00;">regex :string</text>
<text text-anchor="start" x="148" y="-21.4" style="font-family:Times New Roman;font-size:11.00;">created_at :datetime</text>
<text text-anchor="start" x="148" y="-9.4" style="font-family:Times New Roman;font-size:11.00;">updated_at :datetime</text>
</g>
<!-- Owner -->
<g id="node4" class="node"><title>Owner</title>
<polyline style="fill:none;stroke:black;" points="274,-12 354,-12 "/>
<path style="fill:none;stroke:black;" d="M354,-12C360,-12 366,-18 366,-24"/>
<polyline style="fill:none;stroke:black;" points="366,-24 366,-52 "/>
<path style="fill:none;stroke:black;" d="M366,-52C366,-58 360,-64 354,-64"/>
<polyline style="fill:none;stroke:black;" points="354,-64 274,-64 "/>
<path style="fill:none;stroke:black;" d="M274,-64C268,-64 262,-58 262,-52"/>
<polyline style="fill:none;stroke:black;" points="262,-52 262,-24 "/>
<path style="fill:none;stroke:black;" d="M262,-24C262,-18 268,-12 274,-12"/>
<text text-anchor="middle" x="314" y="-47.4" style="font-family:Times New Roman;font-size:11.00;">Owner</text>
<polyline style="fill:none;stroke:black;" points="262,-44 366,-44 "/>
<text text-anchor="start" x="270" y="-27.4" style="font-family:Times New Roman;font-size:11.00;">created_at :datetime</text>
<text text-anchor="start" x="270" y="-15.4" style="font-family:Times New Roman;font-size:11.00;">updated_at :datetime</text>
</g>
<!-- Question -->
<g id="node5" class="node"><title>Question</title>
<polyline style="fill:none;stroke:black;" points="200,-124 280,-124 "/>
<path style="fill:none;stroke:black;" d="M280,-124C286,-124 292,-130 292,-136"/>
<polyline style="fill:none;stroke:black;" points="292,-136 292,-200 "/>
<path style="fill:none;stroke:black;" d="M292,-200C292,-206 286,-212 280,-212"/>
<polyline style="fill:none;stroke:black;" points="280,-212 200,-212 "/>
<path style="fill:none;stroke:black;" d="M200,-212C194,-212 188,-206 188,-200"/>
<polyline style="fill:none;stroke:black;" points="188,-200 188,-136 "/>
<path style="fill:none;stroke:black;" d="M188,-136C188,-130 194,-124 200,-124"/>
<text text-anchor="middle" x="240" y="-195.4" style="font-family:Times New Roman;font-size:11.00;">Question</text>
<polyline style="fill:none;stroke:black;" points="188,-192 292,-192 "/>
<text text-anchor="start" x="196" y="-175.4" style="font-family:Times New Roman;font-size:11.00;">content :text</text>
<text text-anchor="start" x="196" y="-163.4" style="font-family:Times New Roman;font-size:11.00;">created_at :datetime</text>
<text text-anchor="start" x="196" y="-151.4" style="font-family:Times New Roman;font-size:11.00;">updated_at :datetime</text>
<text text-anchor="start" x="196" y="-139.4" style="font-family:Times New Roman;font-size:11.00;">identity_url :string</text>
<text text-anchor="start" x="196" y="-127.4" style="font-family:Times New Roman;font-size:11.00;">title :string</text>
</g>
<!-- Question&#45;&gt;Answer -->
<g id="edge8" class="edge"><title>Question&#45;&gt;Answer</title>
<path style="fill:none;stroke:black;" d="M180,-124C179,-124 179,-124 179,-124 168,-115 164,-114 152,-106 142,-99 131,-90 121,-81"/>
<polygon style="fill:black;stroke:black;" points="180,-124 185.3,-133.6 184,-127 188,-130 188,-130 188,-130 184,-127 190.7,-126.4 180,-124 180,-124"/>
<ellipse style="fill:black;stroke:black;" cx="118.073" cy="-78.5608" rx="4.00002" ry="4.00002"/>
</g>
<!-- Question&#45;&gt;OpenidRegex -->
<g id="edge4" class="edge"><title>Question&#45;&gt;OpenidRegex</title>
<path style="fill:none;stroke:black;" d="M180,-124C168,-115 158,-108 157,-106 153,-97 154,-88 157,-79"/>
<polygon style="fill:black;stroke:black;" points="180,-124 185.3,-133.6 184,-127 188,-130 188,-130 188,-130 184,-127 190.7,-126.4 180,-124 180,-124"/>
<polygon style="fill:black;stroke:black;" points="157.144,-78.7416 165.934,-72.1854 159.572,-74.3708 162,-70 162,-70 162,-70 159.572,-74.3708 158.066,-67.8146 157.144,-78.7416 157.144,-78.7416"/>
<text text-anchor="middle" x="191" y="-93.4" style="font-family:Times New Roman;font-size:11.00;">viewer_regexs</text>
</g>
<!-- Question&#45;&gt;OpenidRegex -->
<g id="edge10" class="edge"><title>Question&#45;&gt;OpenidRegex</title>
<path style="fill:none;stroke:black;" d="M225,-114C223,-107 221,-101 218,-94 216,-89 214,-84 212,-79"/>
<polygon style="fill:black;stroke:black;" points="225.126,-114.422 223.69,-125.293 226.563,-119.211 228,-124 228,-124 228,-124 226.563,-119.211 232.31,-122.707 225.126,-114.422 225.126,-114.422"/>
<polygon style="fill:black;stroke:black;" points="212.061,-79.1381 212.112,-68.1723 210.031,-74.5691 208,-70 208,-70 208,-70 210.031,-74.5691 203.888,-71.8277 212.061,-79.1381 212.061,-79.1381"/>
<text text-anchor="middle" x="254" y="-93.4" style="font-family:Times New Roman;font-size:11.00;">owner_regexs</text>
</g>
<!-- Question&#45;&gt;Owner -->
<g id="edge2" class="edge"><title>Question&#45;&gt;Owner</title>
<path style="fill:none;stroke:black;" d="M282,-116C284,-112 285,-109 287,-106 293,-95 298,-83 302,-72"/>
<polygon style="fill:black;stroke:black;" points="282,-116 272.4,-121.3 279,-120 276,-124 276,-124 276,-124 279,-120 279.6,-126.7 282,-116 282,-116"/>
<ellipse style="fill:black;stroke:black;" cx="303.595" cy="-67.7453" rx="4.00001" ry="4.00001"/>
</g>
<!-- Viewer -->
<g id="node6" class="node"><title>Viewer</title>
<polyline style="fill:none;stroke:black;" points="396,-12 476,-12 "/>
<path style="fill:none;stroke:black;" d="M476,-12C482,-12 488,-18 488,-24"/>
<polyline style="fill:none;stroke:black;" points="488,-24 488,-52 "/>
<path style="fill:none;stroke:black;" d="M488,-52C488,-58 482,-64 476,-64"/>
<polyline style="fill:none;stroke:black;" points="476,-64 396,-64 "/>
<path style="fill:none;stroke:black;" d="M396,-64C390,-64 384,-58 384,-52"/>
<polyline style="fill:none;stroke:black;" points="384,-52 384,-24 "/>
<path style="fill:none;stroke:black;" d="M384,-24C384,-18 390,-12 396,-12"/>
<text text-anchor="middle" x="436" y="-47.4" style="font-family:Times New Roman;font-size:11.00;">Viewer</text>
<polyline style="fill:none;stroke:black;" points="384,-44 488,-44 "/>
<text text-anchor="start" x="392" y="-27.4" style="font-family:Times New Roman;font-size:11.00;">created_at :datetime</text>
<text text-anchor="start" x="392" y="-15.4" style="font-family:Times New Roman;font-size:11.00;">updated_at :datetime</text>
</g>
<!-- Question&#45;&gt;Viewer -->
<g id="edge6" class="edge"><title>Question&#45;&gt;Viewer</title>
<path style="fill:none;stroke:black;" d="M301,-128C329,-109 364,-86 390,-69"/>
<polygon style="fill:black;stroke:black;" points="300.321,-128.453 289.504,-130.256 296.16,-131.226 292,-134 292,-134 292,-134 296.16,-131.226 294.496,-137.744 300.321,-128.453 300.321,-128.453"/>
<ellipse style="fill:black;stroke:black;" cx="393.745" cy="-66.325" rx="4.00002" ry="4.00002"/>
</g>
</g>
</svg>
